<?xml version="1.0" standalone="no"?>
<!DOCTYPE svg PUBLIC "-//W3C//DTD SVG 20010904//EN"
 "http://www.w3.org/TR/2001/REC-SVG-20010904/DTD/svg10.dtd">
<svg version="1.0" xmlns="http://www.w3.org/2000/svg"
 width="199.000000pt" height="200.000000pt" viewBox="0 0 199.000000 200.000000"
 preserveAspectRatio="xMidYMid meet">
<metadata>
Created by potrace 1.15, written by Peter Selinger 2001-2017
</metadata>
<g transform="translate(0.000000,200.000000) scale(0.100000,-0.100000)"
fill="#000000" stroke="none">
<path d="M786 1944 c-230 -51 -466 -208 -593 -394 -138 -203 -199 -493 -153
-722 65 -317 253 -561 535 -695 41 -19 80 -33 86 -31 10 3 15 73 10 163 -1 8
-22 26 -49 39 -135 69 -265 203 -338 351 -58 118 -75 186 -81 322 -7 137 12
233 67 349 105 220 292 378 510 433 86 21 240 37 240 25 1 -5 2 -65 3 -133 l2
-124 69 -19 c38 -10 77 -23 87 -29 18 -9 19 -32 19 -575 l0 -565 23 7 c49 15
137 65 147 83 6 13 10 173 10 455 0 243 4 436 9 436 13 0 78 -130 85 -172 4
-22 15 -42 26 -48 24 -13 157 -13 165 0 10 16 -25 132 -67 220 -34 71 -56 100
-132 175 -67 66 -110 99 -161 124 -110 54 -105 46 -105 186 0 134 -4 144 -56
144 -16 0 -87 3 -159 6 -96 3 -148 0 -199 -11z"/>
<path d="M1294 1896 c-3 -7 -4 -48 -2 -92 l3 -79 65 -35 c85 -46 252 -211 303
-300 63 -110 89 -206 95 -352 3 -97 0 -145 -13 -205 -55 -248 -238 -464 -475
-560 -85 -34 -191 -54 -264 -51 l-61 3 -5 735 -5 735 -153 -220 c-85 -121
-160 -220 -167 -220 -7 0 -45 42 -84 93 -39 50 -76 92 -81 92 -15 0 -67 -77
-100 -146 -43 -88 -62 -183 -62 -299 1 -121 18 -193 73 -302 57 -115 59 -115
122 -57 28 26 55 54 60 61 4 7 -5 37 -22 70 -56 109 -76 241 -48 306 l12 29
65 -77 65 -76 25 32 c82 105 106 133 119 137 12 4 13 -73 9 -512 -4 -370 -2
-520 6 -531 17 -22 148 -38 261 -31 288 17 574 174 725 396 165 244 220 546
145 802 -91 311 -264 509 -568 650 -30 14 -39 15 -43 4z"/>
</g>
</svg>
